<!-- icon666.com - MILLIONS vector ICONS FREE --><svg version="1.1" id="Capa_1" xmlns="http://www.w3.org/2000/svg" xmlns:xlink="http://www.w3.org/1999/xlink" x="0px" y="0px" viewBox="0 0 512.001 512.001" style="enable-background:new 0 0 512.001 512.001;" xml:space="preserve"><g><g><path d="M440.022,476.573l-11.06-55.543c-0.808-4.064-4.758-6.705-8.821-5.892c-4.064,0.809-6.701,4.759-5.893,8.822 l11.016,55.325c0.388,2.887,0.82,9.549-2.612,13.501c-5.856,6.745-18.444,3.266-50.592,4.211v-70.707 c0-4.144-3.358-7.502-7.502-7.502c-4.144,0-7.502,3.358-7.502,7.502v70.707h-139.87c-4.144,0-7.502,3.358-7.502,7.502 s3.358,7.502,7.502,7.502h192.493c10.722,0,18.897-3.155,24.3-9.377C440.146,495.523,441.615,484.533,440.022,476.573z"></path></g></g><g><g><g><path d="M422.127,386.692c-4.002-15.007-2.599-34.459-22.016-49.668c-11.091-8.666-14.51-8.068-78.138-26.837l-19.722-13.337 v-12.433c35.98-19.522,53.272-54.135,53.272-88.08v-1.385c24.561-4.541,36.554-29.259,22.866-47.763 c0.008-0.112,0.402-27.806-0.841-39.445C364.975,1.755,231.73-37.075,164.08,41.735c-2.73,3.116-2.419,7.856,0.697,10.586 c3.117,2.73,7.856,2.418,10.587-0.697c55.759-64.433,161.823-39.069,184.193,42.12l0.122,0.45 c5.055,18.674,3.408,31.668,3.732,41.534c-4.443-1.831-9.38-2.891-14.586-2.991c-5.379-2.945-9.953-8.042-12.403-14.762 c-1.257-3.697-1.737-5.583-2.114-11.797c-0.149-5.867-2.83-11.397-7.355-15.173c-15.656-13.063-29.071,6.957-113.963-2.991 l-11.306-1.572c-12.204-1.9-23.497,7.261-23.821,19.804c-0.173,3.623-0.377,5.834-1.491,9.862 c-2.463,8.244-7.337,12.404-6.993,12.046c-1.914,1.929-4.017,3.486-6.029,4.583c-5.207,0.1-10.147,1.159-14.591,2.992 c0.033-21.908,0.121-36.208,8.998-56.447c1.663-3.794-0.063-8.219-3.858-9.883c-3.794-1.663-8.218,0.063-9.883,3.858 c-6.037,13.768-9.481,28.477-10.141,43.801c0,0.101-0.239,28.112-0.092,30.133c-13.737,18.57-1.628,43.236,22.87,47.763 c0.465,65.519,52.067,88.467,52.832,89.227c0.065,0.036,0.132,0.071,0.197,0.107v12.679l-19.418,13.131 c-58.292,17.194-63.369,18.659-64.059,18.916c-16.327,6.088-28.706,19.09-32.437,37.785 C70.928,481.532,71.896,476.598,71.841,476.985C68.971,497.262,79.681,512,102.256,512h79.922c4.144,0,7.502-3.358,7.502-7.502 s-3.358-7.502-7.502-7.502h-27.03V426.29c0-4.144-3.358-7.502-7.502-7.502s-7.502,3.358-7.502,7.502v70.707h-37.889 c-12.145,0-17.248-5.321-15.584-17.713c23.733-115.397,20.454-115.991,30.253-126.626c3.9-4.237,8.911-7.452,14.293-9.5 c54.931-16.203,57.309-16.904,57.338-16.913c0.016-0.005,0.05-0.015,0.121-0.036c14.461,40.211,13.487,38.504,14.902,40.983 c3.882,6.806,12.771,10.087,21.127,5.256c2.042-0.809,19.722-7.818,22.319-8.848v62.688c0,4.144,3.358,7.502,7.502,7.502 c4.144,0,7.502-3.358,7.502-7.502v-63.026c32.52,11.816,23.244,8.314,27.071,10.108c7.853,3.679,17.528-0.068,20.579-8.621 l13.737-38.495c66.16,19.515,49.115,14.568,51.979,15.332c0.605,0.362,23.241,4.003,28.056,28.141l3.961,19.894 c0.809,4.064,4.759,6.703,8.822,5.893C420.298,394.705,422.935,390.755,422.127,386.692z M355.523,148.797 c18.107,5.386,18.096,25.381,0,30.765V148.797z M156.656,179.563c-18.109-5.384-18.106-25.384,0-30.767V179.563z M177.553,227.395c-7.629-19.248-5.893-29.487-5.893-82.125c11.925-7.032,20.733-20.382,21.209-38.711 c0.085-3.38,3.228-5.807,6.502-5.293l2.304,0.35c7.139,0.343,44.067,9.089,111.128-0.349c1.621-0.251,3.279,0.206,4.54,1.257 c1.831,1.529,1.912,3.217,1.997,4.673c0.478,13.286,5.379,25.264,15.197,33.759l-0.054-0.046 c1.387,1.251,3.826,3.063,6.033,4.358c0,0.254,0.003,50.142,0.003,51.07c0,60.517-63.602,104.626-123.177,75.031 c-0.032-0.016-0.077-0.039-0.122-0.06c-0.001-0.001-0.001-0.001-0.002-0.001C199.732,262.223,185.219,246.811,177.553,227.395z M216.676,359.774c-0.214-0.02,0.51,1.48-14.282-39.766l13.127-8.876l27.302,37.996 C217.058,359.443,218.137,358.691,216.676,359.774z M254.763,340.031l-30.074-41.853v-7.492 c16.389,5.419,29.759,4.987,30.673,5.071v-0.065c0.045,0,0.09,0.003,0.136,0.003l0.001,0.063 c13.923-0.239,21.994-1.787,31.748-4.99v7.49L254.763,340.031z M295.532,359.745c-0.169,0.152-0.443-0.437-2.041-1.018 c-2.054-0.746-23.554-8.553-26.714-9.701l29.586-38.046l13.35,9.028L295.532,359.745z"></path><path d="M188.555,326.245C188.527,326.253,188.559,326.244,188.555,326.245L188.555,326.245z"></path></g></g></g></svg>