<!-- icon666.com - MILLIONS vector ICONS FREE --><svg fill="none" viewBox="0 0 32 32" xmlns="http://www.w3.org/2000/svg"><g clip-rule="evenodd" fill="rgb(0,0,0)" fill-rule="evenodd"><path d="m16 2c-1.4856 0-2.719 1.07983-2.9581 2.49742-3.51744 1.2236-6.0419 4.56828-6.0419 8.50258v7.382l-1.44721.7236c-.33879.1694-.55279.5156-.55279.8944v3.5858l-2.70711 2.7071c-.39052.3905-.39052 1.0237 0 1.4142.39053.3905 1.02369.3905 1.41422 0l25.99999-25.99999c.3905-.39053.3905-1.02369 0-1.41422-.3905-.39052-1.0237-.39052-1.4142 0l-5.1853 5.18533c-1.0562-1.3575-2.4927-2.40445-4.1495-2.9808-.2391-1.41759-1.4725-2.49742-2.9581-2.49742zm5.6791 6.90669c-1.2713-1.76076-3.3414-2.90669-5.6791-2.90669-3.866 0-7 3.13401-7 7v8c0 .3788-.214.725-.55279.8944l-1.44721.7236v.9678z"></path><path d="m12.126 27h-3.71179l1.99999-2h14.5858v-2.382l-1.4472-.7236c-.3388-.1694-.5528-.5156-.5528-.8944v-8c0-.1897-.0075-.3776-.0223-.5634l1.728-1.7281c.192.7316.2943 1.4996.2943 2.2915v7.382l1.4472.7236c.3388.1694.5528.5156.5528.8944v4c0 .5523-.4477 1-1 1h-6.126c-.4441 1.7252-2.0102 3-3.874 3s-3.4299-1.2748-3.874-3zm2.1416 0c.3458.5978.9921 1 1.7324 1s1.3866-.4022 1.7324-1z"></path></g></svg>