<!-- icon666.com - MILLIONS vector ICONS FREE --><svg viewBox="-15 0 511 512" xmlns="http://www.w3.org/2000/svg"><path d="m405.5 272c-47.667969 0-80.949219-36.625-96.542969-58.453125-23.363281-32.703125-38.457031-75.308594-38.457031-108.546875v-15h-30c-19.84375 0-36.480469 11.417969-46.847656 32.15625-14.320313 28.636719-15.8125 76.890625 5.183594 119.84375h-93.335938c-24.8125 0-45 20.1875-45 45 0 5.851562 1.121094 11.445312 3.164062 16.578125-19.089843 5.210937-33.164062 22.703125-33.164062 43.421875s14.074219 38.210938 33.164062 43.421875c-2.042968 5.132813-3.164062 10.726563-3.164062 16.578125 0 20.71875 14.074219 38.210938 33.164062 43.421875-2.042968 5.132813-3.164062 10.726563-3.164062 16.578125 0 24.8125 20.1875 45 45 45h116.457031c24.800781 0 48.59375-5.480469 68.800781-15.847656 28.058594-14.394532 48.386719-14.300782 76.527344-14.175782 2.683594.011719 83.214844.015626 83.214844.015626v-209.992188zm-14.988281 180.054688c-27.105469-.035157-51.570313 1.050781-83.449219 17.40625-15.988281 8.203124-35.046875 12.550781-55.109375 12.550781l-116.453125-.011719c-8.273438 0-15-6.730469-15-15s6.726562-15 15-15h30v-30h-60c-8.273438 0-15-6.730469-15-15s6.726562-15 15-15h60v-30h-90c-8.273438 0-15-6.730469-15-15s6.726562-15.011719 15-15.011719h90v-29.988281h-60c-8.273438 0-15-6.730469-15-15s6.726562-15 15-15h150l-18-24c-12.671875-16.898438-21.09375-38.359375-23.714844-60.4375-2.351562-19.824219.09375-38.773438 6.699219-51.992188 8.828125-17.65625 20.078125-15.339843 20.769531-15.570312 3.554688 36.402344 19.464844 77.632812 43.292969 110.984375 29.078125 40.703125 66.257813 65.15625 105.964844 70.085937zm59.988281-150.066407v150.011719h-30v-150.011719zm0 0"></path><path d="m.5 150h30v30h-30zm0 0"></path><path d="m60.5 150h30v30h-30zm0 0"></path><path d="m30.5 120h30v30h-30zm0 0"></path><path d="m30.5 180h30v30h-30zm0 0"></path><path d="m90.5 30h30v30h-30zm0 0"></path><path d="m150.5 30h30v30h-30zm0 0"></path><path d="m120.5 0h30v30h-30zm0 0"></path><path d="m120.5 60h30v30h-30zm0 0"></path><path d="m330.5 90h30v30h-30zm0 0"></path><path d="m390.5 90h30v30h-30zm0 0"></path><path d="m360.5 60h30v30h-30zm0 0"></path><path d="m360.5 120h30v30h-30zm0 0"></path></svg>